With: Josh Hartnett, Takuya Kimura en Byung-Hun Lee

Voormalig politieagent Kline (Josh Hartnett) uit Los Angeles raakte getraumatiseerd na het uitschakelen van een seriemoordenaar. Hij wordt door een machtige Filipijnse zakenman ingeschakeld om zijn vermiste zoon Shitao op te sporen. Kline vertrekt naar de Filipijnen, waar speurwerk hem naar Hong Kong leidt. Verscheurd tussen goed en kwaad, raakt Kline in het kruisvuur tussen mafia en de politie. Hij spoort Shitao op, die een geheimzinnige landloper geworden blijkt te zijn.

Ex-Los Angeles cop turned private eye Kline travels to Hong Kong in search of Shitao, the missing son of a powerful pharmaceutical conglomerate boss. Enlisting Meng Zi a friend and a former colleague now working for the Hong Kong Police, Kline follows a faint trail left by the ethereal Shitao. The path leads to local gangster Su Dongpo and his beautiful, drug addicted girlfriend Lili. But Kline is distracted from his search, haunted by memories of the serial killer...

------------------ Dutch Friends ------------------

You can find my Friends at: http://www.Film-Test.nl 
                    
------ They got my dutchs subs ---- and more ------

General:

Complete name                    : I Come with the Rain\I Come with the Rain.avi
Format                           : AVI
Format/Info                      : Audio Video Interleave
File size                        : 1.66 GiB
Duration                         : 1h 49mn
Overall bit rate                 : 2 172 Kbps

Video:

Format                           : MPEG-4 Visual
Format profile                   : Simple@L3
Format settings, BVOP            : No
Format settings, QPel            : No
Format settings, GMC             : No warppoints
Format settings, Matrix          : Default (H.263)
Codec ID                         : XVID
Codec ID/Hint                    : XviD
Duration                         : 1h 49mn
Bit rate                         : 1 713 Kbps
Width                            : 720 pixels
Height                           : 304 pixels
Display aspect ratio             : 2.35:1
Frame rate                       : 25.000 fps
Color space                      : YUV
Chroma subsampling               : 4:2:0
Bit depth                        : 8 bits
Scan type                        : Progressive
Bits/(Pixel*Frame)               : 0.313
Stream size                      : 1.31 GiB (79%)
Writing library                  : XviD 1.1.2 (UTC 2006-11-01)

Audio:

Format                           : AC-3
Format/Info                      : Audio Coding 3
Mode extension                   : CM (complete main)
Codec ID                         : 2000
Duration                         : 1h 49mn
Bit rate mode                    : Constant
Bit rate                         : 448 Kbps
Channel(s)                       : 6 channels
Channel positions                : Front: L C R, Side: L R, LFE
Sampling rate                    : 48.0 KHz
Bit depth                        : 16 bits
Stream size                      : 352 MiB (21%)
Alignment                        : Aligned on interleaves
Interleave, duration             : 32 ms (0.80 video frame)
Interleave, preload duration     : 32 ms

